<svg width="24" height="24" viewBox="0 0 24 24" fill="none" xmlns="http://www.w3.org/2000/svg">
<g opacity="0.7">
<path d="M16.9996 2.90002C18.6997 2.90796 20.3275 3.5889 21.5269 4.7939C22.7263 5.9989 23.3996 7.62987 23.3996 9.33002C23.3996 12.9 21.9696 14.69 15.9496 19.33L13.1696 21.49C12.8363 21.7487 12.4265 21.8891 12.0046 21.8891C11.5827 21.8891 11.1729 21.7487 10.8396 21.49L8.04961 19.37C1.99961 14.69 0.599609 12.9 0.599609 9.33002C0.599591 7.62987 1.27292 5.9989 2.47229 4.7939C3.67167 3.5889 5.29947 2.90796 6.99961 2.90002C7.97033 2.92043 8.92397 3.1594 9.78962 3.59915C10.6553 4.03889 11.4106 4.66811 11.9996 5.44002C12.5886 4.66811 13.344 4.03889 14.2096 3.59915C15.0752 3.1594 16.0289 2.92043 16.9996 2.90002ZM6.99961 4.70002C5.77686 4.70795 4.6069 5.19924 3.74508 6.06668C2.88327 6.93412 2.39958 8.10725 2.39961 9.33002C2.39961 12.15 3.54961 13.59 9.15961 17.96L11.9396 20.12C11.9569 20.133 11.978 20.14 11.9996 20.14C12.0212 20.14 12.0423 20.133 12.0596 20.12L14.8396 18C20.4496 13.64 21.5996 12.2 21.5996 9.37002C21.6049 8.76116 21.49 8.15724 21.2616 7.59283C21.0331 7.02843 20.6956 6.51462 20.2683 6.08084C19.841 5.64705 19.3324 5.30181 18.7715 5.06487C18.2106 4.82793 17.6085 4.70395 16.9996 4.70002C15.4396 4.70002 13.9996 5.58002 12.7696 7.43002L11.9996 8.50002L11.2596 7.43002C9.99961 5.58002 8.57961 4.70002 6.99961 4.70002Z" fill="#818C99"/>
</g>
</svg>
